<svg xmlns="http://www.w3.org/2000/svg" xmlns:xlink="http://www.w3.org/1999/xlink">
    <symbol viewBox="0 0 24 24" id="hamburger">
        <line x1="4" x2="20" y1="12" y2="12" fill="none" stroke="currentColor"
            stroke-linecap="round"
            stroke-linejoin="round" stroke-miterlimit="10" stroke-width="4" />
        <line x1="4" x2="20" y1="19" y2="19" fill="none" stroke="currentColor"
            stroke-linecap="round"
            stroke-linejoin="round" stroke-miterlimit="10" stroke-width="4" />
        <line x1="4" x2="20" y1="5" y2="5" fill="none" stroke="currentColor" stroke-linecap="round"
            stroke-linejoin="round" stroke-miterlimit="10" stroke-width="4" />
    </symbol>
    <symbol viewBox="0 0 24 24" id="hamburger2">
        <path fill="none" stroke="currentColor" stroke-linecap="round" stroke-miterlimit="10"
            stroke-width="32"
            d="M80 160h352M80 256h352M80 352h352" />
    </symbol>
    <symbol viewBox="0 0 512 512" id="close-outline">
        <path fill="none" stroke="currentColor" stroke-linecap="round" stroke-linejoin="round"
            stroke-width="32"
            d="M368 368L144 144M368 144L144 368" />
    </symbol>
    <symbol viewBox="0 0 24 24" id="search">
        <rect width="24" height="24" opacity="0" />
        <path
            d="M20.71 19.29l-3.4-3.39A7.92 7.92 0 0 0 19 11a8 8 0 1 0-8 8 7.92 7.92 0 0 0 4.9-1.69l3.39 3.4a1 1 0 0 0 1.42 0 1 1 0 0 0 0-1.42zM5 11a6 6 0 1 1 6 6 6 6 0 0 1-6-6z" />
    </symbol>
    <symbol viewBox="0 0 24 24" id="arrow">
        <path fill="#6563ff"
            d="M9.87891,17.24268a1,1,0,0,1-.707-1.707L12.707,12,9.17188,8.46436a.99989.99989,0,0,1,1.41406-1.41407L14.82812,11.293a.99962.99962,0,0,1,0,1.41406l-4.24218,4.24268A.99678.99678,0,0,1,9.87891,17.24268Z" />
    </symbol>
    <symbol viewBox="0 0 24 24" id="icon-fat-2416">
        <path fill="currentColor" clip-rule="evenodd"
            d="m2 2v10h12v-10zm-1-2c-.552285 0-1 .447715-1 1v13h16v-13c0-.552285-.4477-1-1-1z"
            fill-rule="evenodd"
            transform="translate(4 3)"></path>
        <path fill="currentColor" clip-rule="evenodd"
            d="m2 2v2h16v-2zm-1-2c-.552285 0-1 .447715-1 1v4c0 .55228.447715 1 1 1h18c.5523 0 1-.44772 1-1v-4c0-.552285-.4477-1-1-1z"
            fill-rule="evenodd" transform="translate(2 15)"></path>
        <path fill="currentColor"
            d="m2 1c0 .55228-.44772 1-1 1-.552285 0-1-.44772-1-1 0-.552285.447715-1 1-1 .55228 0 1 .447715 1 1z"
            transform="translate(10 6)"></path>
        <path fill="currentColor"
            d="m2 1c0 .55228-.44772 1-1 1-.552285 0-1-.44772-1-1 0-.552285.447715-1 1-1 .55228 0 1 .447715 1 1z"
            transform="translate(7 6)"></path>
        <path fill="currentColor"
            d="m2 1c0 .55228-.44772 1-1 1-.552285 0-1-.44772-1-1 0-.552285.447715-1 1-1 .55228 0 1 .447715 1 1z"
            transform="translate(7 9)"></path>
    </symbol>
    <symbol viewBox="0 0 24 24" id="icon-fat-3361">
        <path fill="currentColor" clip-rule="evenodd"
            d="m12 2h-10v16h10zm-10-2c-1.104569 0-2 .895431-2 2v16c0 1.1046.895431 2 2 2h10c1.1046 0 2-.8954 2-2v-16c0-1.104569-.8954-2-2-2z"
            fill-rule="evenodd" transform="translate(5 2)"></path>
        <path fill="currentColor"
            d="m2 1c0 .55228-.44772 1-1 1-.552285 0-1-.44772-1-1 0-.552285.447715-1 1-1 .55228 0 1 .447715 1 1z"
            transform="translate(10.9932 17)"></path>
    </symbol>
    <symbol viewBox="0 0 24 24" id="icon-heart-empty">
        <path clip-rule="evenodd" fill="currentColor"
            d="m3.4181 5.31884c.9661-1.14226 2.37454-1.81884 4.0819-1.81884 1.14319 0 2.23774.62595 3.0785 1.26152.5191.39237 1.0029.83608 1.4215 1.26141.4186-.42533.9024-.86904 1.4215-1.26141.8408-.63557 1.9353-1.26152 3.0785-1.26152 1.7379 0 3.1462.75107 4.0986 1.93888.9358 1.16719 1.4014 2.71241 1.4014 4.31112 0 1.4435-.7114 2.8288-1.6063 4.0219-.9086 1.2116-2.0982 2.3461-3.2535 3.3088-1.1605.9671-2.3162 1.7854-3.1793 2.3607-.4324.2883-.7935.517-1.0478.6745-.1272.0787-.2279.1397-.2975.1815-.0349.0209-.0619.037-.0807.0481l-.022.013-.0061.0036-.0019.0011c-.0002.0001-.001.0006-.5049-.8632-.5039.8638-.5041.8637-.5043.8635l-.0025-.0015-.0063-.0036-.022-.013c-.0189-.0112-.046-.0273-.0809-.0483-.0698-.0419-.1707-.1031-.298-.1822-.2547-.1581-.6162-.3879-1.0491-.678-.86379-.5791-2.02057-1.4045-3.18207-2.3853-1.15656-.9766-2.34684-2.1315-3.2556-3.3734-.89758-1.2266-1.59923-2.645-1.59923-4.12779 0-1.60112.46738-3.10749 1.4181-4.23157zm8.5819 14.18116-.5043.8635.5043.2942.5039-.2939zm.0005-1.1719c.2246-.1408.5147-.3265.8511-.5508.8244-.5496 1.9187-1.3251 3.0082-2.233 1.0947-.9123 2.1551-1.934 2.934-2.9724.7926-1.057 1.2062-2.0154 1.2062-2.8219 0-1.22952-.3599-2.3093-.9618-3.06005-.5854-.73014-1.4271-1.18995-2.5382-1.18995-.4663 0-1.1176.28637-1.8724.85695-.7209.54494-1.3915 1.23793-1.8686 1.79414l-.759.88481-.759-.88481c-.4771-.55621-1.1477-1.2492-1.86856-1.79414-.7548-.57058-1.40613-.85695-1.87244-.85695-1.14164 0-1.9832.4345-2.55485 1.11039-.58703.69408-.94515 1.71291-.94515 2.94002 0 .86699.42335 1.86719 1.21327 2.94669.77874 1.0643 1.83846 2.1031 2.9319 3.0264 1.0885.9192 2.18173 1.7 3.00543 2.2521.336.2253.6256.4115.8499.5525z"
            fill-rule="evenodd"></path>
    </symbol>
    <symbol viewBox="0 0 512 512" id="icon-heart-full">
        <!-- Heart -->
        <path fill="currentColor"
            d="M256 448a32 32 0 01-18-5.57c-78.59-53.35-112.62-89.93-131.39-112.8-40-48.75-59.15-98.8-58.61-153C48.63 114.52 98.46 64 159.08 64c44.08 0 74.61 24.83 92.39 45.51a6 6 0 009.06 0C278.31 88.81 308.84 64 352.92 64c60.62 0 110.45 50.52 111.08 112.64.54 54.21-18.63 104.26-58.61 153-18.77 22.87-52.8 59.45-131.39 112.8a32 32 0 01-18 5.56z" />
    </symbol>
    <symbol viewBox="0 0 512 512" id="phone-protrait-outline">
        <!-- Phone Portrait -->
        <rect x="128" y="16" width="256" height="480" rx="48" ry="48" fill="none"
            stroke="currentColor"
            stroke-linecap="round" stroke-linejoin="round" stroke-width="32" />
        <path d="M176 16h24a8 8 0 018 8h0a16 16 0 0016 16h64a16 16 0 0016-16h0a8 8 0 018-8h24"
            fill="none"
            stroke="currentColor" stroke-linecap="round" stroke-linejoin="round" stroke-width="32" />
    </symbol>
    <symbol viewBox="0 0 512 512" id="trash-outline">
        <!-- Trash -->
        <path d="M112 112l20 320c.95 18.49 14.4 32 32 32h184c17.67 0 30.87-13.51 32-32l20-320"
            fill="none"
            stroke="currentColor" stroke-linecap="round" stroke-linejoin="round" stroke-width="32" />
        <path stroke="currentColor" stroke-linecap="round" stroke-miterlimit="10" stroke-width="32"
            d="M80 112h352" />
        <path
            d="M192 112V72h0a23.93 23.93 0 0124-24h80a23.93 23.93 0 0124 24h0v40M256 176v224M184 176l8 224M328 176l-8 224"
            fill="none" stroke="currentColor" stroke-linecap="round" stroke-linejoin="round"
            stroke-width="32" />
    </symbol>
    <symbol viewBox="0 0 512 512" id="trash-filled">
        <!-- Trash -->
        <path d="M296 64h-80a7.91 7.91 0 00-8 8v24h96V72a7.91 7.91 0 00-8-8z" fill="none" />
        <path
            d="M432 96h-96V72a40 40 0 00-40-40h-80a40 40 0 00-40 40v24H80a16 16 0 000 32h17l19 304.92c1.42 26.85 22 47.08 48 47.08h184c26.13 0 46.3-19.78 48-47l19-305h17a16 16 0 000-32zM192.57 416H192a16 16 0 01-16-15.43l-8-224a16 16 0 1132-1.14l8 224A16 16 0 01192.57 416zM272 400a16 16 0 01-32 0V176a16 16 0 0132 0zm32-304h-96V72a7.91 7.91 0 018-8h80a7.91 7.91 0 018 8zm32 304.57A16 16 0 01320 416h-.58A16 16 0 01304 399.43l8-224a16 16 0 1132 1.14z" />
    </symbol>
    <symbol viewBox="0 0 512 512" id="bag-outline">
        <!-- Bag Handle -->
        <path
            d="M80 176a16 16 0 00-16 16v216c0 30.24 25.76 56 56 56h272c30.24 0 56-24.51 56-54.75V192a16 16 0 00-16-16zM160 176v-32a96 96 0 0196-96h0a96 96 0 0196 96v32"
            fill="none" stroke="currentColor" stroke-linecap="round" stroke-linejoin="round"
            stroke-width="32" />
        <path d="M160 224v16a96 96 0 0096 96h0a96 96 0 0096-96v-16" fill="none"
            stroke="currentColor"
            stroke-linecap="round" stroke-linejoin="round" stroke-width="32" />
    </symbol>
    <symbol viewBox="0 0 512 512" id="heart-circle-outline">
        <!-- Heart Circle -->
        <path d="M448 256c0-106-86-192-192-192S64 150 64 256s86 192 192 192 192-86 192-192z"
            fill="none"
            stroke="currentColor" stroke-miterlimit="10" stroke-width="32" />
        <path fill="currentColor"
            d="M256 360a16 16 0 01-9-2.78c-39.3-26.68-56.32-45-65.7-56.41-20-24.37-29.58-49.4-29.3-76.5.31-31.06 25.22-56.33 55.53-56.33 20.4 0 35 10.63 44.1 20.41a6 6 0 008.72 0c9.11-9.78 23.7-20.41 44.1-20.41 30.31 0 55.22 25.27 55.53 56.33.28 27.1-9.31 52.13-29.3 76.5-9.38 11.44-26.4 29.73-65.7 56.41A16 16 0 01256 360z" />
    </symbol>
    <symbol viewBox="0 0 512 512" id="bag-filled">
        <!-- Bag Handle -->
        <path
            d="M454.65 169.4A31.82 31.82 0 00432 160h-64v-16a112 112 0 00-224 0v16H80a32 32 0 00-32 32v216c0 39 33 72 72 72h272a72.22 72.22 0 0050.48-20.55 69.48 69.48 0 0021.52-50.2V192a31.75 31.75 0 00-9.35-22.6zM176 144a80 80 0 01160 0v16H176zm192 96a112 112 0 01-224 0v-16a16 16 0 0132 0v16a80 80 0 00160 0v-16a16 16 0 0132 0z" />
    </symbol>
    <symbol viewBox="0 0 512 512" id="language-outline">
        <!-- Language -->
        <path fill="none" stroke="currentColor" stroke-linecap="round" stroke-linejoin="round"
            stroke-width="32"
            d="M48 112h288M192 64v48M272 448l96-224 96 224M301.5 384h133M281.3 112S257 206 199 277 80 384 80 384" />
        <path d="M256 336s-35-27-72-75-56-85-56-85" fill="none" stroke="currentColor"
            stroke-linecap="round"
            stroke-linejoin="round" stroke-width="32" />
    </symbol>
    <symbol viewBox="0 0 512 512" id="instock">
        <path fill="none" stroke="currentColor" stroke-linecap="round" stroke-linejoin="round"
            stroke-width="32"
            d="M416 128L192 384l-96-96" />
    </symbol>
    <symbol viewBox="0 0 512 512" id="sizes1">
        <path fill="none" stroke="currentColor" stroke-linecap="round" stroke-linejoin="round"
            stroke-width="32"
            d="M432 320v112H320M421.8 421.77L304 304M80 192V80h112M90.2 90.23L208 208M320 80h112v112M421.77 90.2L304 208M192 432H80V320M90.23 421.8L208 304" />
    </symbol>
    <symbol viewBox="0 0 512 512" id="sizes2">
        <path fill="none" stroke="currentColor" stroke-linecap="round" stroke-linejoin="round"
            stroke-width="32"
            d="M304 96h112v112M405.77 106.2L111.98 400.02M208 416H96V304" />
    </symbol>
    <symbol viewBox="0 0 512 512" id="light-theme-outline">
        <!-- Sunny -->
        <path fill="none" stroke="currentColor" stroke-linecap="round" stroke-miterlimit="10"
            stroke-width="32"
            d="M256 48v48M256 416v48M403.08 108.92l-33.94 33.94M142.86 369.14l-33.94 33.94M464 256h-48M96 256H48M403.08 403.08l-33.94-33.94M142.86 142.86l-33.94-33.94" />
        <circle cx="256" cy="256" r="80" fill="none" stroke="currentColor" stroke-linecap="round"
            stroke-miterlimit="10"
            stroke-width="32" />
    </symbol>
    <symbol viewBox="0 0 512 512" id="dark-theme-outline">
        <!-- Moon -->
        <path
            d="M160 136c0-30.62 4.51-61.61 16-88C99.57 81.27 48 159.32 48 248c0 119.29 96.71 216 216 216 88.68 0 166.73-51.57 200-128-26.39 11.49-57.38 16-88 16-119.29 0-216-96.71-216-216z"
            fill="none" stroke="currentColor" stroke-linecap="round" stroke-linejoin="round"
            stroke-width="32" />
    </symbol>
    <symbol viewBox="0 0 512 512" id="cart">
        <circle cx="176" cy="416" r="16" fill="none" stroke="currentColor" stroke-linecap="round"
            stroke-linejoin="round" stroke-width="32" />
        <circle cx="400" cy="416" r="16" fill="none" stroke="currentColor" stroke-linecap="round"
            stroke-linejoin="round" stroke-width="32" />
        <path fill="none" stroke="currentColor" stroke-linecap="round" stroke-linejoin="round"
            stroke-width="32"
            d="M48 80h64l48 272h256" />
        <path d="M160 288h249.44a8 8 0 007.85-6.43l28.8-144a8 8 0 00-7.85-9.57H128" fill="none"
            stroke="currentColor"
            stroke-linecap="round" stroke-linejoin="round" stroke-width="32" />
    </symbol>
    <symbol viewBox="0 0 512 512" id="cart-filled">
        <!-- Cart -->
        <circle fill="currentColor" cx="176" cy="416" r="32" />
        <circle fill="currentColor" cx="400" cy="416" r="32" />
        <path fill="currentColor"
            d="M456.8 120.78a23.92 23.92 0 00-18.56-8.78H133.89l-6.13-34.78A16 16 0 00112 64H48a16 16 0 000 32h50.58l45.66 258.78A16 16 0 00160 368h256a16 16 0 000-32H173.42l-5.64-32h241.66A24.07 24.07 0 00433 284.71l28.8-144a24 24 0 00-5-19.93z" />
    </symbol>
    <symbol viewBox="0 0 512 512" id="speed">
        <path fill="currentColor"
            d="M326.1 231.9l-47.5 75.5a31 31 0 01-7 7 30.11 30.11 0 01-35-49l75.5-47.5a10.23 10.23 0 0111.7 0 10.06 10.06 0 012.3 14z" />
        <path
            d="M256 64C132.3 64 32 164.2 32 287.9a223.18 223.18 0 0056.3 148.5c1.1 1.2 2.1 2.4 3.2 3.5a25.19 25.19 0 0037.1-.1 173.13 173.13 0 01254.8 0 25.19 25.19 0 0037.1.1l3.2-3.5A223.18 223.18 0 00480 287.9C480 164.2 379.7 64 256 64z"
            fill="none" stroke="currentColor" stroke-linecap="round" stroke-linejoin="round"
            stroke-width="32" />
        <path fill="none" stroke="currentColor" stroke-linecap="round" stroke-miterlimit="10"
            stroke-width="32"
            d="M256 128v32M416 288h-32M128 288H96M165.49 197.49l-22.63-22.63M346.51 197.49l22.63-22.63" />
    </symbol>
    <symbol viewBox="0 0 512 512" id="planet">
        <path
            d="M413.48 284.46c58.87 47.24 91.61 89 80.31 108.55-17.85 30.85-138.78-5.48-270.1-81.15S.37 149.84 18.21 119c11.16-19.28 62.58-12.32 131.64 14.09"
            fill="none" stroke="currentColor" stroke-miterlimit="10" stroke-width="32" />
        <circle cx="256" cy="256" r="160" fill="none" stroke="currentColor" stroke-miterlimit="10"
            stroke-width="32" />
    </symbol>
    <symbol viewBox="0 0 512 512" id="earth">
        <path
            d="M464 256c0-114.87-93.13-208-208-208S48 141.13 48 256s93.13 208 208 208 208-93.13 208-208z"
            fill="none"
            stroke="currentColor" stroke-miterlimit="10" stroke-width="32" />
        <path fill="currentColor"
            d="M445.57 172.14c-16.06.1-14.48 29.73-34.49 15.75-7.43-5.18-12-12.71-21.33-15-8.15-2-16.5.08-24.55 1.47-9.15 1.58-20 2.29-26.94 9.22-6.71 6.67-10.26 15.62-17.4 22.33-13.81 13-19.64 27.19-10.7 45.57 8.6 17.67 26.59 27.26 46 26 19.07-1.27 38.88-12.33 38.33 15.38-.2 9.8 1.85 16.6 4.86 25.71 2.79 8.4 2.6 16.54 3.24 25.21 1.18 16.2 4.16 34.36 12.2 48.67l15-21.16c1.85-2.62 5.72-6.29 6.64-9.38 1.63-5.47-1.58-14.87-1.95-21s-.19-12.34-1.13-18.47c-1.32-8.59-6.4-16.64-7.1-25.13-1.29-15.81 1.6-28.43-10.58-41.65-11.76-12.75-29-15.81-45.47-13.22-8.3 1.3-41.71 6.64-28.3-12.33 2.65-3.73 7.28-6.79 10.26-10.34 2.59-3.09 4.84-8.77 7.88-11.18s17-5.18 21-3.95 8.17 7 11.64 9.56a49.89 49.89 0 0021.81 9.36c13.66 2 42.22-5.94 42-23.46-.04-8.4-7.84-20.1-10.92-27.96zM287.45 316.3c-5.33-22.44-35.82-29.94-52.26-42.11-9.45-7-17.86-17.81-30.27-18.69-5.72-.41-10.51.83-16.18-.64-5.2-1.34-9.28-4.14-14.82-3.41-10.35 1.36-16.88 12.42-28 10.92-10.55-1.42-21.42-13.76-23.82-23.81-3.08-12.92 7.14-17.11 18.09-18.26 4.57-.48 9.7-1 14.09.67 5.78 2.15 8.51 7.81 13.7 10.67 9.73 5.33 11.7-3.19 10.21-11.83-2.23-12.94-4.83-18.22 6.71-27.12 8-6.14 14.84-10.58 13.56-21.61-.76-6.48-4.31-9.41-1-15.86 2.51-4.91 9.4-9.34 13.89-12.27 11.59-7.56 49.65-7 34.1-28.16-4.57-6.21-13-17.31-21-18.83-10-1.89-14.44 9.27-21.41 14.19-7.2 5.09-21.22 10.87-28.43 3-9.7-10.59 6.43-14.07 10-21.46s-8.27-21.36-14.61-24.9l-29.81 33.43a41.52 41.52 0 008.34 31.86c5.93 7.63 15.37 10.08 15.8 20.5.42 10-1.14 15.12-7.68 22.15-2.83 3-4.83 7.26-7.71 10.07-3.53 3.43-2.22 2.38-7.73 3.32-10.36 1.75-19.18 4.45-29.19 7.21C95.34 199.94 93.8 172.69 86.2 162l-25 20.19c-.27 3.31 4.1 9.4 5.29 13 6.83 20.57 20.61 36.48 29.51 56.16 9.37 20.84 34.53 15.06 45.64 33.32 9.86 16.2-.67 36.71 6.71 53.67 5.36 12.31 18 15 26.72 24 8.91 9.09 8.72 21.53 10.08 33.36a305.22 305.22 0 007.45 41.28c1.21 4.69 2.32 10.89 5.53 14.76 2.2 2.66 9.75 4.95 6.7 5.83 4.26.7 11.85 4.68 15.4 1.76 4.68-3.84 3.43-15.66 4.24-21 2.43-15.9 10.39-31.45 21.13-43.35 10.61-11.74 25.15-19.69 34.11-33 8.73-12.98 11.36-30.49 7.74-45.68zm-33.39 26.32c-6 10.71-19.36 17.88-27.95 26.39-2.33 2.31-7.29 10.31-10.21 8.58-2.09-1.24-2.8-11.62-3.57-14a61.17 61.17 0 00-21.71-29.95c-3.13-2.37-10.89-5.45-12.68-8.7-2-3.53-.2-11.86-.13-15.7.11-5.6-2.44-14.91-1.06-20 1.6-5.87-1.48-2.33 3.77-3.49 2.77-.62 14.21 1.39 17.66 2.11 5.48 1.14 8.5 4.55 12.82 8 11.36 9.11 23.87 16.16 36.6 23.14 9.86 5.46 12.76 12.37 6.46 23.62zM184.46 67.09c4.74 4.63 9.2 10.11 16.27 10.57 6.69.45 13-3.17 18.84 1.38 6.48 5 11.15 11.33 19.75 12.89 8.32 1.51 17.13-3.35 19.19-11.86 2-8.11-2.31-16.93-2.57-25.07 0-1.13.61-6.15-.17-7-.58-.64-5.42.08-6.16.1q-8.13.24-16.22 1.12a207.1 207.1 0 00-57.18 14.65c2.43 1.68 5.48 2.35 8.25 3.22zM356.4 123.27c8.49 0 17.11-3.8 14.37-13.62-2.3-8.23-6.22-17.16-15.76-12.72-6.07 2.82-14.67 10-15.38 17.12-.81 8.08 11.11 9.22 16.77 9.22zM349.62 166.24c8.67 5.19 21.53 2.75 28.07-4.66 5.11-5.8 8.12-15.87 17.31-15.86a15.4 15.4 0 0110.82 4.41c3.8 3.93 3.05 7.62 3.86 12.54 1.81 11.05 13.66.63 16.75-3.65 2-2.79 4.71-6.93 3.8-10.56-.84-3.39-4.8-7-6.56-10.11-5.14-9-9.37-19.47-17.07-26.74-7.41-7-16.52-6.19-23.55 1.08-5.76 6-12.45 10.75-16.39 18.05-2.78 5.13-5.91 7.58-11.54 8.91-3.1.73-6.64 1-9.24 3.08-7.24 5.7-3.12 19.39 3.74 23.51z" />
    </symbol>
    <symbol viewBox="0 0 512 512" id="flash">
        <path
            d="M315.27 33L96 304h128l-31.51 173.23a2.36 2.36 0 002.33 2.77h0a2.36 2.36 0 001.89-.95L416 208H288l31.66-173.25a2.45 2.45 0 00-2.44-2.75h0a2.42 2.42 0 00-1.95 1z"
            fill="none" stroke="currentColor" stroke-linecap="round" stroke-linejoin="round"
            stroke-width="32" />
    </symbol>
    <symbol viewBox="0 0 512 512" id="sizes">
        <path fill="none" stroke="currentColor" stroke-linecap="round" stroke-linejoin="round"
            stroke-width="32"
            d="M176 112l80-80 80 80M255.98 32l.02 448M176 400l80 80 80-80M400 176l80 80-80 80M112 176l-80 80 80 80M32 256h448" />
    </symbol>
    <symbol viewBox="0 0 512 512" id="payment">
        <rect x="48" y="144" width="416" height="288" rx="48" ry="48" fill="none"
            stroke="currentColor"
            stroke-linejoin="round" stroke-width="32" />
        <path d="M411.36 144v-30A50 50 0 00352 64.9L88.64 109.85A50 50 0 0048 159v49" fill="none"
            stroke="currentColor"
            stroke-linejoin="round" stroke-width="32" />
        <path fill="currentColor" d="M368 320a32 32 0 1132-32 32 32 0 01-32 32z" />
    </symbol>
    <symbol viewBox="0 0 512 512" id="person-circle-outline">
        <path
            d="M258.9 48C141.92 46.42 46.42 141.92 48 258.9c1.56 112.19 92.91 203.54 205.1 205.1 117 1.6 212.48-93.9 210.88-210.88C462.44 140.91 371.09 49.56 258.9 48zm126.42 327.25a4 4 0 01-6.14-.32 124.27 124.27 0 00-32.35-29.59C321.37 329 289.11 320 256 320s-65.37 9-90.83 25.34a124.24 124.24 0 00-32.35 29.58 4 4 0 01-6.14.32A175.32 175.32 0 0180 259c-1.63-97.31 78.22-178.76 175.57-179S432 158.81 432 256a175.32 175.32 0 01-46.68 119.25z" />
        <path
            d="M256 144c-19.72 0-37.55 7.39-50.22 20.82s-19 32-17.57 51.93C191.11 256 221.52 288 256 288s64.83-32 67.79-71.24c1.48-19.74-4.8-38.14-17.68-51.82C293.39 151.44 275.59 144 256 144z" />
    </symbol>
    <symbol viewBox="0 0 512 512" id="catalog">
        <rect x="64" y="64" width="80" height="80" rx="40" ry="40" fill="none" stroke="currentColor"
            stroke-miterlimit="10" stroke-width="32" />
        <rect x="216" y="64" width="80" height="80" rx="40" ry="40" fill="none"
            stroke="currentColor"
            stroke-miterlimit="10" stroke-width="32" />
        <rect x="368" y="64" width="80" height="80" rx="40" ry="40" fill="none"
            stroke="currentColor"
            stroke-miterlimit="10" stroke-width="32" />
        <rect x="64" y="216" width="80" height="80" rx="40" ry="40" fill="none"
            stroke="currentColor"
            stroke-miterlimit="10" stroke-width="32" />
        <rect x="216" y="216" width="80" height="80" rx="40" ry="40" fill="none"
            stroke="currentColor"
            stroke-miterlimit="10" stroke-width="32" />
        <rect x="368" y="216" width="80" height="80" rx="40" ry="40" fill="none"
            stroke="currentColor"
            stroke-miterlimit="10" stroke-width="32" />
        <rect x="64" y="368" width="80" height="80" rx="40" ry="40" fill="none"
            stroke="currentColor"
            stroke-miterlimit="10" stroke-width="32" />
        <rect x="216" y="368" width="80" height="80" rx="40" ry="40" fill="none"
            stroke="currentColor"
            stroke-miterlimit="10" stroke-width="32" />
        <rect x="368" y="368" width="80" height="80" rx="40" ry="40" fill="none"
            stroke="currentColor"
            stroke-miterlimit="10" stroke-width="32" />
    </symbol>
    <symbol viewBox="0 0 512 512" id="catalog2">
        <rect x="48" y="48" width="176" height="176" rx="20" ry="20" fill="none"
            stroke="currentColor"
            stroke-linecap="round" stroke-linejoin="round" stroke-width="32" />
        <rect x="288" y="48" width="176" height="176" rx="20" ry="20" fill="none"
            stroke="currentColor"
            stroke-linecap="round" stroke-linejoin="round" stroke-width="32" />
        <rect x="48" y="288" width="176" height="176" rx="20" ry="20" fill="none"
            stroke="currentColor"
            stroke-linecap="round" stroke-linejoin="round" stroke-width="32" />
        <rect x="288" y="288" width="176" height="176" rx="20" ry="20" fill="none"
            stroke="currentColor"
            stroke-linecap="round" stroke-linejoin="round" stroke-width="32" />
    </symbol>
    <symbol viewBox="0 0 512 512" id="catalog2-filled">
        <!-- Grid -->
        <path
            d="M204 240H68a36 36 0 01-36-36V68a36 36 0 0136-36h136a36 36 0 0136 36v136a36 36 0 01-36 36zM444 240H308a36 36 0 01-36-36V68a36 36 0 0136-36h136a36 36 0 0136 36v136a36 36 0 01-36 36zM204 480H68a36 36 0 01-36-36V308a36 36 0 0136-36h136a36 36 0 0136 36v136a36 36 0 01-36 36zM444 480H308a36 36 0 01-36-36V308a36 36 0 0136-36h136a36 36 0 0136 36v136a36 36 0 01-36 36z" />
    </symbol>
    <symbol viewBox="0 0 512 512" id="orders1">
        <!-- Receipt -->
        <path fill="none" stroke="currentColor" stroke-linejoin="round" stroke-width="32"
            d="M160 336V48l32 16 32-16 31.94 16 32.37-16L320 64l31.79-16 31.93 16L416 48l32.01 16L480 48v224" />
        <path
            d="M480 272v112a80 80 0 01-80 80h0a80 80 0 01-80-80v-48H48a15.86 15.86 0 00-16 16c0 64 6.74 112 80 112h288"
            fill="none" stroke="currentColor" stroke-linejoin="round" stroke-width="32" />
        <path fill="none" stroke="currentColor" stroke-linecap="round" stroke-linejoin="round"
            stroke-width="32"
            d="M224 144h192M288 224h128" />
    </symbol>
    <symbol viewBox="0 0 512 512" id="orders2">
        <!-- Reader -->
        <rect x="96" y="48" width="320" height="416" rx="48" ry="48" fill="none"
            stroke="currentColor"
            stroke-linejoin="round" stroke-width="32" />
        <path fill="none" stroke="currentColor" stroke-linecap="round" stroke-linejoin="round"
            stroke-width="32"
            d="M176 128h160M176 208h160M176 288h80" />
    </symbol>
    <symbol viewBox="0 0 512 512" id="orders2-filled">
        <!-- Reader -->
        <path
            d="M368 32H144a64.07 64.07 0 00-64 64v320a64.07 64.07 0 0064 64h224a64.07 64.07 0 0064-64V96a64.07 64.07 0 00-64-64zM256 304h-80a16 16 0 010-32h80a16 16 0 010 32zm80-80H176a16 16 0 010-32h160a16 16 0 010 32zm0-80H176a16 16 0 010-32h160a16 16 0 010 32z" />
    </symbol>
    <symbol viewBox="0 0 512 512" id="codeslash-outline">
        <!-- Code Slash -->
        <path fill="none" stroke="currentColor" stroke-linecap="round" stroke-linejoin="round"
            stroke-width="32" d="M160 368L32 256l128-112M352 368l128-112-128-112M304 96l-96 320" />
    </symbol>
    <symbol viewBox="0 0 512 512" id="heart-outline">
        <!-- Heart -->
        <path
            d="M352.92 80C288 80 256 144 256 144s-32-64-96.92-64c-52.76 0-94.54 44.14-95.08 96.81-1.1 109.33 86.73 187.08 183 252.42a16 16 0 0018 0c96.26-65.34 184.09-143.09 183-252.42-.54-52.67-42.32-96.81-95.08-96.81z"
            fill="none" stroke="currentColor" stroke-linecap="round" stroke-linejoin="round"
            stroke-width="32" />
    </symbol>
    <symbol viewBox="0 0 512 512" id="logout-outline">
        <!-- Log Out -->
        <path
            d="M304 336v40a40 40 0 01-40 40H104a40 40 0 01-40-40V136a40 40 0 0140-40h152c22.09 0 48 17.91 48 40v40M368 336l80-80-80-80M176 256h256"
            fill="none" stroke="currentColor" stroke-linecap="round" stroke-linejoin="round"
            stroke-width="32" />
    </symbol>
    <symbol viewBox="0 0 512 512" id="logout-filled">
        <!-- Log Out -->
        <path
            d="M160 256a16 16 0 0116-16h144V136c0-32-33.79-56-64-56H104a56.06 56.06 0 00-56 56v240a56.06 56.06 0 0056 56h160a56.06 56.06 0 0056-56V272H176a16 16 0 01-16-16zM459.31 244.69l-80-80a16 16 0 00-22.62 22.62L409.37 240H320v32h89.37l-52.68 52.69a16 16 0 1022.62 22.62l80-80a16 16 0 000-22.62z" />
    </symbol>
    <symbol viewBox="0 0 512 512" id="home-outline">
        <!-- Home -->
        <path
            d="M80 212v236a16 16 0 0016 16h96V328a24 24 0 0124-24h80a24 24 0 0124 24v136h96a16 16 0 0016-16V212"
            fill="none" stroke="currentColor" stroke-linecap="round" stroke-linejoin="round"
            stroke-width="32" />
        <path d="M480 256L266.89 52c-5-5.28-16.69-5.34-21.78 0L32 256M400 179V64h-48v69" fill="none"
            stroke="currentColor" stroke-linecap="round" stroke-linejoin="round" stroke-width="32" />
    </symbol>
    <symbol viewBox="0 0 512 512" id="home-filled">
        <!-- Home -->
        <path
            d="M261.56 101.28a8 8 0 00-11.06 0L66.4 277.15a8 8 0 00-2.47 5.79L63.9 448a32 32 0 0032 32H192a16 16 0 0016-16V328a8 8 0 018-8h80a8 8 0 018 8v136a16 16 0 0016 16h96.06a32 32 0 0032-32V282.94a8 8 0 00-2.47-5.79z" />
        <path
            d="M490.91 244.15l-74.8-71.56V64a16 16 0 00-16-16h-48a16 16 0 00-16 16v32l-57.92-55.38C272.77 35.14 264.71 32 256 32c-8.68 0-16.72 3.14-22.14 8.63l-212.7 203.5c-6.22 6-7 15.87-1.34 22.37A16 16 0 0043 267.56L250.5 69.28a8 8 0 0111.06 0l207.52 198.28a16 16 0 0022.59-.44c6.14-6.36 5.63-16.86-.76-22.97z" />
    </symbol>
    <symbol viewBox="0 0 512 512" id="info-outline">
        <!-- Information -->
        <path fill="none" stroke="currentColor" stroke-linecap="round" stroke-linejoin="round"
            stroke-width="40"
            d="M196 220h64v172" />
        <path fill="none" stroke="currentColor" stroke-linecap="round" stroke-miterlimit="10"
            stroke-width="40"
            d="M187 396h138" />
        <path d="M256 160a32 32 0 1132-32 32 32 0 01-32 32z" fill="currentColor" />
    </symbol>
    <symbol viewBox="0 0 512 512" id="filter-outline">
        <!-- Funnel -->
        <path
            d="M35.4 87.12l168.65 196.44A16.07 16.07 0 01208 294v119.32a7.93 7.93 0 005.39 7.59l80.15 26.67A7.94 7.94 0 00304 440V294a16.07 16.07 0 014-10.44L476.6 87.12A14 14 0 00466 64H46.05A14 14 0 0035.4 87.12z"
            fill="none" stroke="currentColor" stroke-linecap="round" stroke-linejoin="round"
            stroke-width="32" />
    </symbol>
    <symbol viewBox="0 0 512 512" id="locked-outline">
        <!-- Lock Closed -->
        <path d="M336 208v-95a80 80 0 00-160 0v95" fill="none" stroke="currentColor"
            stroke-linecap="round"
            stroke-linejoin="round" stroke-width="32" />
        <rect x="96" y="208" width="320" height="272" rx="48" ry="48" fill="none"
            stroke="currentColor"
            stroke-linecap="round" stroke-linejoin="round" stroke-width="32" />
    </symbol>
    <symbol viewBox="0 0 512 512" id="hummer-outline">
        <!-- Hammer -->
        <path
            d="M277.42 247a24.68 24.68 0 00-4.08-5.47L255 223.44a21.63 21.63 0 00-6.56-4.57 20.93 20.93 0 00-23.28 4.27c-6.36 6.26-18 17.68-39 38.43C146 301.3 71.43 367.89 37.71 396.29a16 16 0 00-1.09 23.54l39 39.43a16.13 16.13 0 0023.67-.89c29.24-34.37 96.3-109 136-148.23 20.39-20.06 31.82-31.58 38.29-37.94a21.76 21.76 0 003.84-25.2zM478.43 201l-34.31-34a5.44 5.44 0 00-4-1.59 5.59 5.59 0 00-4 1.59h0a11.41 11.41 0 01-9.55 3.27c-4.48-.49-9.25-1.88-12.33-4.86-7-6.86 1.09-20.36-5.07-29a242.88 242.88 0 00-23.08-26.72c-7.06-7-34.81-33.47-81.55-52.53a123.79 123.79 0 00-47-9.24c-26.35 0-46.61 11.76-54 18.51-5.88 5.32-12 13.77-12 13.77a91.29 91.29 0 0110.81-3.2 79.53 79.53 0 0123.28-1.49C241.19 76.8 259.94 84.1 270 92c16.21 13 23.18 30.39 24.27 52.83.8 16.69-15.23 37.76-30.44 54.94a7.85 7.85 0 00.4 10.83l21.24 21.23a8 8 0 0011.14.1c13.93-13.51 31.09-28.47 40.82-34.46s17.58-7.68 21.35-8.09a35.71 35.71 0 0121.3 4.62 13.65 13.65 0 013.08 2.38c6.46 6.56 6.07 17.28-.5 23.74l-2 1.89a5.5 5.5 0 000 7.84l34.31 34a5.5 5.5 0 004 1.58 5.65 5.65 0 004-1.58L478.43 209a5.82 5.82 0 000-8z"
            fill="none" stroke="currentColor" stroke-linecap="round" stroke-linejoin="round"
            stroke-width="32" />
    </symbol>
    <symbol viewBox="0 0 512 512" id="hardware-chip-outline">
        <!-- Hardware Chip -->
        <rect x="80" y="80" width="352" height="352" rx="48" ry="48" fill="none"
            stroke="currentColor"
            stroke-linejoin="round" stroke-width="32" />
        <rect x="144" y="144" width="224" height="224" rx="16" ry="16" fill="none"
            stroke="currentColor"
            stroke-linejoin="round" stroke-width="32" />
        <path fill="none" stroke="currentColor" stroke-linecap="round" stroke-linejoin="round"
            stroke-width="32"
            d="M256 80V48M336 80V48M176 80V48M256 464v-32M336 464v-32M176 464v-32M432 256h32M432 336h32M432 176h32M48 256h32M48 336h32M48 176h32" />
    </symbol>
    <symbol viewBox="0 0 512 512" id="cog-outline">
        <!-- Cog -->
        <path
            d="M456.7 242.27l-26.08-4.2a8 8 0 01-6.6-6.82c-.5-3.2-1-6.41-1.7-9.51a8.08 8.08 0 013.9-8.62l23.09-12.82a8.05 8.05 0 003.9-9.92l-4-11a7.94 7.94 0 00-9.4-5l-25.89 5a8 8 0 01-8.59-4.11q-2.25-4.2-4.8-8.41a8.16 8.16 0 01.7-9.52l17.29-19.94a8 8 0 00.3-10.62l-7.49-9a7.88 7.88 0 00-10.5-1.51l-22.69 13.63a8 8 0 01-9.39-.9c-2.4-2.11-4.9-4.21-7.4-6.22a8 8 0 01-2.5-9.11l9.4-24.75A8 8 0 00365 78.77l-10.2-5.91a8 8 0 00-10.39 2.21l-16.64 20.84a7.15 7.15 0 01-8.5 2.5s-5.6-2.3-9.8-3.71A8 8 0 01304 87l.4-26.45a8.07 8.07 0 00-6.6-8.42l-11.59-2a8.07 8.07 0 00-9.1 5.61l-8.6 25.05a8 8 0 01-7.79 5.41h-9.8a8.07 8.07 0 01-7.79-5.41l-8.6-25.05a8.07 8.07 0 00-9.1-5.61l-11.59 2a8.07 8.07 0 00-6.6 8.42l.4 26.45a8 8 0 01-5.49 7.71c-2.3.9-7.3 2.81-9.7 3.71-2.8 1-6.1.2-8.8-2.91l-16.51-20.34A8 8 0 00156.75 73l-10.2 5.91a7.94 7.94 0 00-3.3 10.09l9.4 24.75a8.06 8.06 0 01-2.5 9.11c-2.5 2-5 4.11-7.4 6.22a8 8 0 01-9.39.9L111 116.14a8 8 0 00-10.5 1.51l-7.49 9a8 8 0 00.3 10.62l17.29 19.94a8 8 0 01.7 9.52q-2.55 4-4.8 8.41a8.11 8.11 0 01-8.59 4.11l-25.89-5a8 8 0 00-9.4 5l-4 11a8.05 8.05 0 003.9 9.92L85.58 213a7.94 7.94 0 013.9 8.62c-.6 3.2-1.2 6.31-1.7 9.51a8.08 8.08 0 01-6.6 6.82l-26.08 4.2a8.09 8.09 0 00-7.1 7.92v11.72a7.86 7.86 0 007.1 7.92l26.08 4.2a8 8 0 016.6 6.82c.5 3.2 1 6.41 1.7 9.51a8.08 8.08 0 01-3.9 8.62L62.49 311.7a8.05 8.05 0 00-3.9 9.92l4 11a7.94 7.94 0 009.4 5l25.89-5a8 8 0 018.59 4.11q2.25 4.2 4.8 8.41a8.16 8.16 0 01-.7 9.52l-17.29 19.96a8 8 0 00-.3 10.62l7.49 9a7.88 7.88 0 0010.5 1.51l22.69-13.63a8 8 0 019.39.9c2.4 2.11 4.9 4.21 7.4 6.22a8 8 0 012.5 9.11l-9.4 24.75a8 8 0 003.3 10.12l10.2 5.91a8 8 0 0010.39-2.21l16.79-20.64c2.1-2.6 5.5-3.7 8.2-2.6 3.4 1.4 5.7 2.2 9.9 3.61a8 8 0 015.49 7.71l-.4 26.45a8.07 8.07 0 006.6 8.42l11.59 2a8.07 8.07 0 009.1-5.61l8.6-25a8 8 0 017.79-5.41h9.8a8.07 8.07 0 017.79 5.41l8.6 25a8.07 8.07 0 009.1 5.61l11.59-2a8.07 8.07 0 006.6-8.42l-.4-26.45a8 8 0 015.49-7.71c4.2-1.41 7-2.51 9.6-3.51s5.8-1 8.3 2.1l17 20.94A8 8 0 00355 439l10.2-5.91a7.93 7.93 0 003.3-10.12l-9.4-24.75a8.08 8.08 0 012.5-9.12c2.5-2 5-4.1 7.4-6.21a8 8 0 019.39-.9L401 395.66a8 8 0 0010.5-1.51l7.49-9a8 8 0 00-.3-10.62l-17.29-19.94a8 8 0 01-.7-9.52q2.55-4.05 4.8-8.41a8.11 8.11 0 018.59-4.11l25.89 5a8 8 0 009.4-5l4-11a8.05 8.05 0 00-3.9-9.92l-23.09-12.82a7.94 7.94 0 01-3.9-8.62c.6-3.2 1.2-6.31 1.7-9.51a8.08 8.08 0 016.6-6.82l26.08-4.2a8.09 8.09 0 007.1-7.92V250a8.25 8.25 0 00-7.27-7.73zM256 112a143.82 143.82 0 01139.38 108.12A16 16 0 01379.85 240H274.61a16 16 0 01-13.91-8.09l-52.1-91.71a16 16 0 019.85-23.39A146.94 146.94 0 01256 112zM112 256a144 144 0 0143.65-103.41 16 16 0 0125.17 3.47L233.06 248a16 16 0 010 15.87l-52.67 91.7a16 16 0 01-25.18 3.36A143.94 143.94 0 01112 256zm144 144a146.9 146.9 0 01-38.19-4.95 16 16 0 01-9.76-23.44l52.58-91.55a16 16 0 0113.88-8H379.9a16 16 0 0115.52 19.88A143.84 143.84 0 01256 400z" />
    </symbol>
    <symbol viewBox="0 0 512 512" id="bandage-outline">
        <!-- Bandage -->
        <rect x="-24.43" y="167.88" width="560.87" height="176.25" rx="88.12" ry="88.12"
            transform="rotate(-45 256 256.002)" fill="none" stroke="currentColor"
            stroke-linecap="round"
            stroke-linejoin="round" stroke-width="32" />
        <rect x="169.41" y="156.59" width="176" height="196" rx="32" ry="32"
            transform="rotate(45 257.409 254.582)"
            fill="none" stroke="currentColor" stroke-linecap="round" stroke-linejoin="round"
            stroke-width="32" />
        <circle cx="256" cy="208" r="16" />
        <circle cx="304" cy="256" r="16" />
        <circle cx="208" cy="256" r="16" />
        <circle cx="256" cy="304" r="16" />
    </symbol>
    <symbol viewBox="0 0 512 512" id="compare-outline">
        <!-- Git Compare -->
        <path fill="none" stroke="currentColor" stroke-linecap="round" stroke-linejoin="round"
            stroke-width="32"
            d="M304 160l-64-64 64-64M207 352l64 64-64 64" />
        <circle cx="112" cy="96" r="48" fill="none" stroke="currentColor" stroke-linecap="round"
            stroke-linejoin="round"
            stroke-width="32" />
        <circle cx="400" cy="416" r="48" fill="none" stroke="currentColor" stroke-linecap="round"
            stroke-linejoin="round" stroke-width="32" />
        <path d="M256 96h84a60 60 0 0160 60v212M255 416h-84a60 60 0 01-60-60V144" fill="none"
            stroke="currentColor"
            stroke-linecap="round" stroke-linejoin="round" stroke-width="32" />
    </symbol>
    <symbol viewBox="0 0 512 512" id="checkmark-outline">
        <!-- Checkmark -->
        <path fill="none" stroke="currentColor" stroke-linecap="round" stroke-linejoin="round"
            stroke-width="32"
            d="M416 128L192 384l-96-96" />
    </symbol>
    <symbol viewBox="0 0 512 512" id="chevron-right">
        <!-- Chevron Forward -->
        <path fill="none" stroke="currentColor" stroke-linecap="round" stroke-linejoin="round"
            stroke-width="48"
            d="M184 112l144 144-144 144" />
    </symbol>
    <symbol viewBox="0 0 512 512" id="chevron-down">
        <!-- Chevron Down -->
        <path fill="none" stroke="currentColor" stroke-linecap="round" stroke-linejoin="round"
            stroke-width="48"
            d="M112 184l144 144 144-144" />
    </symbol>
    <symbol viewBox="0 0 512 512" id="arrow-left">
        <!-- Arrow Back -->
        <path fill="none" stroke="currentColor" stroke-linecap="round" stroke-linejoin="round"
            stroke-width="48"
            d="M244 400L100 256l144-144M120 256h292" />
    </symbol>
    <symbol viewBox="0 0 512 512" id="star-outline">
        <!-- Star -->
        <path d="M480 208H308L256 48l-52 160H32l140 96-54 160 138-100 138 100-54-160z" fill="none"
            stroke="currentColor"
            stroke-linejoin="round" stroke-width="32" />
    </symbol>
    <symbol viewBox="0 0 512 512" id="image-outline">
        <!-- Image -->
        <rect x="48" y="80" width="416" height="352" rx="48" ry="48" fill="none"
            stroke="currentColor" stroke-linejoin="round" stroke-width="32" />
        <circle cx="336" cy="176" r="32" fill="none" stroke="currentColor" stroke-miterlimit="10"
            stroke-width="32" />
        <path
            d="M304 335.79l-90.66-90.49a32 32 0 00-43.87-1.3L48 352M224 432l123.34-123.34a32 32 0 0143.11-2L464 368"
            fill="none" stroke="currentColor" stroke-linecap="round" stroke-linejoin="round"
            stroke-width="32" />
    </symbol>
    <symbol viewBox="0 0 512 512" id="star-filled">
        <!-- Star -->
        <path
            d="M394 480a16 16 0 01-9.39-3L256 383.76 127.39 477a16 16 0 01-24.55-18.08L153 310.35 23 221.2a16 16 0 019-29.2h160.38l48.4-148.95a16 16 0 0130.44 0l48.4 149H480a16 16 0 019.05 29.2L359 310.35l50.13 148.53A16 16 0 01394 480z" />
    </symbol>
    <symbol viewBox="0 0 512 512" id="person-outline">
        <!-- Person -->
        <path d="M344 144c-3.92 52.87-44 96-88 96s-84.15-43.12-88-96c-4-55 35-96 88-96s92 42 88 96z"
            fill="none" stroke="currentColor" stroke-linecap="round" stroke-linejoin="round"
            stroke-width="32" />
        <path
            d="M256 304c-87 0-175.3 48-191.64 138.6C62.39 453.52 68.57 464 80 464h352c11.44 0 17.62-10.48 15.65-21.4C431.3 352 343 304 256 304z"
            fill="none" stroke="currentColor" stroke-miterlimit="10" stroke-width="32" />
    </symbol>
    <symbol viewBox="0 0 512 512" id="person-filled">
        <!-- Person -->
        <path
            d="M332.64 64.58C313.18 43.57 286 32 256 32c-30.16 0-57.43 11.5-76.8 32.38-19.58 21.11-29.12 49.8-26.88 80.78C156.76 206.28 203.27 256 256 256s99.16-49.71 103.67-110.82c2.27-30.7-7.33-59.33-27.03-80.6zM432 480H80a31 31 0 01-24.2-11.13c-6.5-7.77-9.12-18.38-7.18-29.11C57.06 392.94 83.4 353.61 124.8 326c36.78-24.51 83.37-38 131.2-38s94.42 13.5 131.2 38c41.4 27.6 67.74 66.93 76.18 113.75 1.94 10.73-.68 21.34-7.18 29.11A31 31 0 01432 480z"
            fill="currentColor" stroke="none" />
    </symbol>
    <symbol viewBox="0 0 512 512" id="stats-outline">
        <!-- Stats Chart -->
        <rect x="64" y="320" width="48" height="160" rx="8" ry="8" fill="none" stroke="currentColor"
            stroke-linecap="round" stroke-linejoin="round" stroke-width="32" />
        <rect x="288" y="224" width="48" height="256" rx="8" ry="8" fill="none"
            stroke="currentColor" stroke-linecap="round" stroke-linejoin="round" stroke-width="32" />
        <rect x="400" y="112" width="48" height="368" rx="8" ry="8" fill="none"
            stroke="currentColor" stroke-linecap="round" stroke-linejoin="round" stroke-width="32" />
        <rect x="176" y="32" width="48" height="448" rx="8" ry="8" fill="none" stroke="currentColor"
            stroke-linecap="round" stroke-linejoin="round" stroke-width="32" />
    </symbol>
    <symbol viewBox="0 0 512 512" id="stats-filled">
        <!-- Stats Chart -->
        <path
            d="M104 496H72a24 24 0 01-24-24V328a24 24 0 0124-24h32a24 24 0 0124 24v144a24 24 0 01-24 24zM328 496h-32a24 24 0 01-24-24V232a24 24 0 0124-24h32a24 24 0 0124 24v240a24 24 0 01-24 24zM440 496h-32a24 24 0 01-24-24V120a24 24 0 0124-24h32a24 24 0 0124 24v352a24 24 0 01-24 24zM216 496h-32a24 24 0 01-24-24V40a24 24 0 0124-24h32a24 24 0 0124 24v432a24 24 0 01-24 24z"
            fill="currentColor" />
    </symbol>
    <symbol viewBox="0 0 512 512" id="star-half-outline">
        <!-- Star Half -->
        <path d="M480 208H308L256 48l-52 160H32l140 96-54 160 138-100 138 100-54-160z" fill="none"
            stroke="currentColor"
            stroke-linejoin="round" stroke-width="32" />
        <path d="M256 48v316L118 464l54-160-140-96h172l52-160z" />
    </symbol>
    <symbol viewBox="0 0 512 512" id="box-outline">
        <!-- Cube -->
        <path
            d="M448 341.37V170.61A32 32 0 00432.11 143l-152-88.46a47.94 47.94 0 00-48.24 0L79.89 143A32 32 0 0064 170.61v170.76A32 32 0 0079.89 369l152 88.46a48 48 0 0048.24 0l152-88.46A32 32 0 00448 341.37z"
            fill="none" stroke="currentColor" stroke-linecap="round" stroke-linejoin="round"
            stroke-width="32" />
        <path fill="none" stroke="currentColor" stroke-linecap="round" stroke-linejoin="round"
            stroke-width="32" d="M69 153.99l187 110 187-110M256 463.99v-200" />
    </symbol>
    <symbol viewBox="0 0 512 512" id="box-filled">
        <!-- Cube -->
        <path fill="currentColor"
            d="M440.9 136.3a4 4 0 000-6.91L288.16 40.65a64.14 64.14 0 00-64.33 0L71.12 129.39a4 4 0 000 6.91L254 243.88a4 4 0 004.06 0zM54 163.51a4 4 0 00-6 3.49v173.89a48 48 0 0023.84 41.39L234 479.51a4 4 0 006-3.46V274.3a4 4 0 00-2-3.46zM272 275v201a4 4 0 006 3.46l162.15-97.23A48 48 0 00464 340.89V167a4 4 0 00-6-3.45l-184 108a4 4 0 00-2 3.45z" />
    </symbol>
    <symbol viewBox="0 0 512 512" id="fingerprint-outline">
        <!-- Finger Print -->
        <path fill="currentColor"
            d="M390.42 75.28a10.45 10.45 0 01-5.32-1.44C340.72 50.08 302.35 40 256.35 40c-45.77 0-89.23 11.28-128.76 33.84C122 77 115.11 74.8 111.87 69a12.4 12.4 0 014.63-16.32A281.81 281.81 0 01256.35 16c49.23 0 92.23 11.28 139.39 36.48a12 12 0 014.85 16.08 11.3 11.3 0 01-10.17 6.72zm-330.79 126a11.73 11.73 0 01-6.7-2.16 12.26 12.26 0 01-2.78-16.8c22.89-33.6 52-60 86.69-78.48 72.58-38.84 165.51-39.12 238.32-.24 34.68 18.48 63.8 44.64 86.69 78a12.29 12.29 0 01-2.78 16.8 11.26 11.26 0 01-16.18-2.88c-20.8-30.24-47.15-54-78.36-70.56-66.34-35.28-151.18-35.28-217.29.24-31.44 16.8-57.79 40.8-78.59 71a10 10 0 01-9.02 5.08zM204.1 491a10.66 10.66 0 01-8.09-3.6C175.9 466.48 165 453 149.55 424c-16-29.52-24.27-65.52-24.27-104.16 0-71.28 58.71-129.36 130.84-129.36S387 248.56 387 319.84a11.56 11.56 0 11-23.11 0c0-58.08-48.32-105.36-107.72-105.36S148.4 261.76 148.4 319.84c0 34.56 7.39 66.48 21.49 92.4 14.8 27.6 25 39.36 42.77 58.08a12.67 12.67 0 010 17 12.44 12.44 0 01-8.56 3.68zm165.75-44.4c-27.51 0-51.78-7.2-71.66-21.36a129.1 129.1 0 01-55-105.36 11.57 11.57 0 1123.12 0 104.28 104.28 0 0044.84 85.44c16.41 11.52 35.6 17 58.72 17a147.41 147.41 0 0024-2.4c6.24-1.2 12.25 3.12 13.4 9.84a11.92 11.92 0 01-9.47 13.92 152.28 152.28 0 01-27.95 2.88zM323.38 496a13 13 0 01-3-.48c-36.76-10.56-60.8-24.72-86-50.4-32.37-33.36-50.16-77.76-50.16-125.28 0-38.88 31.9-70.56 71.19-70.56s71.2 31.68 71.2 70.56c0 25.68 21.5 46.56 48.08 46.56s48.08-20.88 48.08-46.56c0-90.48-75.13-163.92-167.59-163.92-65.65 0-125.75 37.92-152.79 96.72-9 19.44-13.64 42.24-13.64 67.2 0 18.72 1.61 48.24 15.48 86.64 2.32 6.24-.69 13.2-6.7 15.36a11.34 11.34 0 01-14.79-7 276.39 276.39 0 01-16.88-95c0-28.8 5.32-55 15.72-77.76 30.75-67 98.94-110.4 173.6-110.4 105.18 0 190.71 84.24 190.71 187.92 0 38.88-31.9 70.56-71.2 70.56s-71.2-31.68-71.2-70.56c.01-25.68-21.49-46.6-48.07-46.6s-48.08 20.88-48.08 46.56c0 41 15.26 79.44 43.23 108.24 22 22.56 43 35 75.59 44.4 6.24 1.68 9.71 8.4 8.09 14.64a11.39 11.39 0 01-10.87 9.16z" />
    </symbol>
    <symbol viewBox="0 0 512 512" id="fingerprint-filled">
        <!-- Finger Print -->
        <path fill="currentColor"
            d="M63.28 202a15.29 15.29 0 01-7.7-2 14.84 14.84 0 01-5.52-20.46C69.34 147.36 128 72.25 256 72.25c55.47 0 104.12 14.57 144.53 43.29 33.26 23.57 51.9 50.25 60.78 63.1a14.79 14.79 0 01-4 20.79 15.52 15.52 0 01-21.24-4C420 172.32 371 102 256 102c-112.25 0-163 64.71-179.53 92.46A15 15 0 0163.28 202z" />
        <path fill="currentColor"
            d="M320.49 496a15.31 15.31 0 01-3.79-.43c-92.85-23-127.52-115.82-128.93-119.68l-.22-.85c-.76-2.68-19.39-66.33 9.21-103.61 13.11-17 33.05-25.72 59.38-25.72 24.48 0 42.14 7.61 54.28 23.36 10 12.86 14 28.72 17.87 44 8.13 31.82 14 48.53 47.79 50.25 14.84.75 24.59-7.93 30.12-15.32 14.95-20.15 17.55-53 6.28-82C398 228.57 346.61 158 256 158c-38.68 0-74.22 12.43-102.72 35.79-23.59 19.35-42.28 46.67-51.28 74.75-16.69 52.28 5.2 134.46 5.41 135.21A14.83 14.83 0 0196.54 422a15.39 15.39 0 01-18.74-10.6c-1-3.75-24.38-91.4-5.1-151.82 21-65.47 85.81-131.47 183.33-131.47 45.07 0 87.65 15.32 123.19 44.25 27.52 22.5 50 52.72 61.76 82.93 14.95 38.57 10.94 81.86-10.19 110.14-14.08 18.86-34.13 28.72-56.34 27.65-57.86-2.9-68.26-43.29-75.84-72.75-7.8-30.22-12.79-44.79-42.58-44.79-16.36 0-27.85 4.5-35 13.82-9.75 12.75-10.51 32.68-9.43 47.14a152.44 152.44 0 005.1 29.79c2.38 6 33.37 82 107.59 100.39a14.88 14.88 0 0111 18.11 15.36 15.36 0 01-14.8 11.21z" />
        <path fill="currentColor"
            d="M201.31 489.14a15.5 15.5 0 01-11.16-4.71c-37.16-39-58.18-82.61-66.09-137.14V347c-4.44-36.1 2.06-87.21 33.91-122.35 23.51-25.93 56.56-39.11 98.06-39.11 49.08 0 87.65 22.82 111.7 65.89 17.45 31.29 20.91 62.47 21 63.75a15.07 15.07 0 01-13.65 16.4 15.26 15.26 0 01-16.79-13.29A154 154 0 00340.43 265c-18.64-32.89-47-49.61-84.51-49.61-32.4 0-57.75 9.75-75.19 29-25.14 27.75-30 70.5-26.55 98.78 6.93 48.22 25.46 86.58 58.18 120.86a14.7 14.7 0 01-.76 21.11 15.44 15.44 0 01-10.29 4z" />
        <path fill="currentColor"
            d="M372.5 446.18c-32.5 0-60.13-9-82.24-26.89-44.42-35.79-49.4-94.08-49.62-96.54a15.27 15.27 0 0130.45-2.36c.11.86 4.55 48.54 38.79 76 20.26 16.18 47.34 22.6 80.71 18.85a15.2 15.2 0 0116.91 13.18 14.92 14.92 0 01-13.44 16.5 187 187 0 01-21.56 1.26zM398.18 48.79C385.5 40.54 340.54 16 256 16c-88.74 0-133.81 27.11-143.78 34a11.59 11.59 0 00-1.84 1.4.36.36 0 01-.22.1 14.87 14.87 0 00-5.09 11.15 15.06 15.06 0 0015.31 14.85 15.56 15.56 0 008.88-2.79c.43-.32 39.22-28.82 126.77-28.82S382.58 74.29 383 74.5a15.25 15.25 0 009.21 3 15.06 15.06 0 0015.29-14.89 14.9 14.9 0 00-9.32-13.82z" />
    </symbol>
    <symbol viewBox="0 0 512 512" id="moon-outline">
        <!-- Moon -->
        <path
            d="M160 136c0-30.62 4.51-61.61 16-88C99.57 81.27 48 159.32 48 248c0 119.29 96.71 216 216 216 88.68 0 166.73-51.57 200-128-26.39 11.49-57.38 16-88 16-119.29 0-216-96.71-216-216z"
            fill="none" stroke="currentColor" stroke-linecap="round" stroke-linejoin="round"
            stroke-width="32" />
    </symbol>
    <symbol viewBox="0 0 512 512" id="moon-filled">
        <!-- Moon -->
        <path fill="currentColor"
            d="M264 480A232 232 0 0132 248c0-94 54-178.28 137.61-214.67a16 16 0 0121.06 21.06C181.07 76.43 176 104.66 176 136c0 110.28 89.72 200 200 200 31.34 0 59.57-5.07 81.61-14.67a16 16 0 0121.06 21.06C442.28 426 358 480 264 480z" />
    </symbol>
    <symbol viewBox="0 0 512 512" id="shield-outline">
        <!-- Shield Half  -->
        <path
            d="M463.1 112.37C373.68 96.33 336.71 84.45 256 48c-80.71 36.45-117.68 48.33-207.1 64.37C32.7 369.13 240.58 457.79 256 464c15.42-6.21 223.3-94.87 207.1-351.63z"
            fill="none" stroke="currentColor" stroke-linecap="round" stroke-linejoin="round"
            stroke-width="32" />
        <path fill="currentColor"
            d="M256 48c-80.71 36.45-117.68 48.33-207.1 64.37C32.7 369.13 240.58 457.79 256 464z" />
    </symbol>
    <symbol viewBox="0 0 512 512" id="shield-filled">
        <!-- Shield Half -->
        <path
            d="M48.9 112.37C138.32 96.33 175.29 84.45 256 48c80.71 36.45 117.68 48.33 207.1 64.37C479.3 369.13 271.42 457.79 256 464c-15.42-6.21-223.3-94.87-207.1-351.63z"
            fill="none" stroke="currentColor" stroke-linecap="round" stroke-linejoin="round"
            stroke-width="32" />
        <path fill="currentColor"
            d="M256 48c80.71 36.45 117.68 48.33 207.1 64.37C479.3 369.13 271.42 457.79 256 464z" />
    </symbol>
    <symbol viewBox="0 0 20 20" id="settings-filter" fill="none">
        <path d="M5.4165 1.66699V6.66699" stroke="currentColor" stroke-width="1.5"
            stroke-miterlimit="10"
            stroke-linecap="round" stroke-linejoin="round" />
        <path d="M5.4165 14.9997V18.333" stroke="currentColor" stroke-width="1.5"
            stroke-miterlimit="10"
            stroke-linecap="round" stroke-linejoin="round" />
        <path
            d="M8.33333 11.6663C8.33333 10.0555 7.0275 8.74967 5.41667 8.74967C3.80584 8.74967 2.5 10.0555 2.5 11.6663C2.5 13.2772 3.80584 14.583 5.41667 14.583C7.0275 14.583 8.33333 13.2772 8.33333 11.6663Z"
            stroke="currentColor" stroke-width="1.5" stroke-miterlimit="10" stroke-linecap="round"
            stroke-linejoin="round" />
        <path d="M14.5835 1.66667V5" stroke="currentColor" stroke-width="1.5" stroke-miterlimit="10"
            stroke-linecap="round" stroke-linejoin="round" />
        <path d="M14.5835 13.333V18.333" stroke="currentColor" stroke-width="1.5"
            stroke-miterlimit="10"
            stroke-linecap="round" stroke-linejoin="round" />
        <path
            d="M17.4998 8.33333C17.4998 6.7225 16.194 5.41667 14.5832 5.41667C12.9723 5.41667 11.6665 6.7225 11.6665 8.33333C11.6665 9.94416 12.9723 11.25 14.5832 11.25C16.194 11.25 17.4998 9.94416 17.4998 8.33333Z"
            stroke="currentColor" stroke-width="1.5" stroke-miterlimit="10" stroke-linecap="round"
            stroke-linejoin="round" />

    </symbol>
</svg>